<svg xmlns="http://www.w3.org/2000/svg" viewBox="0 0 64 50.9"><title>coin pay</title><g id="Layer_2" data-name="Layer 2"><g id="coin_pay" data-name="coin pay"><path d="M42.31,38.65l-10,2.59c-.81-.16-1.6-.38-2.72-.71a4.62,4.62,0,0,0,1.94-2.75,3.19,3.19,0,0,0-2.43-3.86L28,33.58c-5.5-1.83-6.49-2.15-10-1l-7.72,3a3,3,0,0,0-2.28-1H3.05A3.06,3.06,0,0,0,0,37.65v9a3.06,3.06,0,0,0,3.05,3.05H8a3.05,3.05,0,0,0,2.84-1.94L34,50.89h.13a1,1,0,0,0,.37-.07L46.44,46a4.18,4.18,0,0,0,2.45-5.39C48.15,38.73,45.82,37.37,42.31,38.65ZM8,47.75H3.05A1.06,1.06,0,0,1,2,46.69v-9a1.06,1.06,0,0,1,1.05-1.05H8A1.07,1.07,0,0,1,9,37.65v9A1.07,1.07,0,0,1,8,47.75Zm37.71-3.56L34,48.87,11,45.82V37.49l7.63-3c2.84-.94,3.29-.8,8.71,1l1.1.36c.87.25,1.24.77,1.07,1.51a3.32,3.32,0,0,1-3.9,2.1l-2.9-.74a1,1,0,0,0-.48,1.94l2.86.73.1,0c1.56.41,2.7.74,3.63,1a31.15,31.15,0,0,0,3.29.84,1,1,0,0,0,.42,0l10.29-2.66.1,0c2-.75,3.59-.43,4.07.83A2.2,2.2,0,0,1,45.69,44.19Z"/><path d="M61.08,3.64H56.47a2.92,2.92,0,0,0-2.63,1.68L39.33,1.13C35.33,0,33.68-.52,30.49.76l-7,2.79C20,5,19.65,6.35,19.52,8L19,14.93a8.82,8.82,0,0,0-.73,3.53,9.24,9.24,0,0,0,17.89,3.26l3.45-.14a1,1,0,0,0,.26,0L54,17a2.91,2.91,0,0,0,2.52,1.47h4.61A2.92,2.92,0,0,0,64,15.53v-9A2.92,2.92,0,0,0,61.08,3.64ZM27.47,25.7a7.25,7.25,0,0,1-7.24-7.25,7,7,0,0,1,7.24-6.93,7.11,7.11,0,0,1,4.69,1.67c-3.63.47-4.7,2.75-5,4.24-.24,1.17-.41,2.64.4,3.6a3.31,3.31,0,0,0,2.67.91l.87,0,2.78-.12A7.26,7.26,0,0,1,27.47,25.7Zm11.88-6.13L31,19.92c-.56,0-1.73.07-1.94-.19,0-.06-.27-.41,0-1.9.41-2,2.19-2.92,5.31-2.7h.1a1,1,0,0,0,.62-.21,1,1,0,0,0,.13-1.41c-2.25-2.71-4.73-4-7.81-4a9.41,9.41,0,0,0-6.26,2.32l.3-3.78c.07-.9.13-1.6,2.76-2.66l7-2.79c2.55-1,3.71-.69,7.54.44L53.55,7.32V15Zm22.65-4a.92.92,0,0,1-.92.92H56.47a.92.92,0,0,1-.92-.92v-9a.92.92,0,0,1,.92-.92h4.61a.92.92,0,0,1,.92.92Z"/></g></g></svg>